<svg id="Capa_1" enable-background="new 0 0 512 512" height="512" viewBox="0 0 512 512" width="512" xmlns="http://www.w3.org/2000/svg"><g><path d="m178.354 387.245v-17.43c0-4.142-3.358-7.5-7.5-7.5s-7.5 3.358-7.5 7.5v17.43c0 4.142 3.358 7.5 7.5 7.5s7.5-3.358 7.5-7.5z"/><path d="m359.768 387.245v-17.43c0-4.142-3.358-7.5-7.5-7.5s-7.5 3.358-7.5 7.5v17.43c0 4.142 3.358 7.5 7.5 7.5 4.142-.001 7.5-3.358 7.5-7.5z"/><path d="m291.13 391.653c2.721-3.122 2.396-7.86-.727-10.581-3.123-2.722-7.86-2.396-10.582.727-9.67 11.096-26.86 11.085-36.521 0-2.721-3.123-7.459-3.448-10.582-.727-3.122 2.721-3.448 7.459-.727 10.581 15.651 17.956 43.507 17.937 59.139 0z"/><path d="m37.278 357.509c4.078-.725 6.797-4.618 6.072-8.697l-7.781-43.771c-3.188-17.928 10.609-34.353 28.785-34.353h76.302c14.194 0 26.3 10.144 28.785 24.119 3.759 21.146 22.076 36.493 43.552 36.493 98.877-.015 99.1.25 104.014-.542 17.777-2.775 32.297-16.139 36.291-34.025 3.228-14.457 13.333-26.045 29.172-26.045 81.304 0 78.205-.291 82.638.692 14.254 2.88 25.328 17.466 22.448 33.661l-18.163 102.175c-5.657 31.822-33.221 54.918-65.542 54.918h-284.577c-32.321 0-59.885-23.097-65.542-54.918l-5.05-28.406c-.725-4.078-4.618-6.794-8.696-6.071-4.078.725-6.797 4.618-6.072 8.697l5.05 28.406c6.931 38.992 40.707 67.293 80.31 67.293h284.575c39.603 0 73.379-28.301 80.31-67.293l18.163-102.175c2.939-16.535-3.693-33.032-16.855-43.013 9.58-24.739 18.111-44.383 23.736-56.821 6.905-15.268.606-33.18-14.34-40.777l-13.363-6.793c-7.995-4.065-17.211-4.582-25.819-1.154 1.232-4.128 2.407-7.976 3.509-11.509 4.984-15.992-3.455-32.995-19.214-38.71l-14.092-5.111c-6.146-2.229-12.555-2.439-18.475-.925 2.464-8.593 4.719-16.069 6.655-22.276 4.985-15.991-3.455-32.995-19.213-38.71l-14.093-5.111c-16.749-6.075-35.158 2.991-40.515 20.001-3.454 10.969-8.006 26.161-13.01 44.753-4.864-17.938-9.259-32.546-12.501-42.842-5.352-16.993-23.75-26.081-40.514-20l-14.093 5.111c-14.963 5.428-23.318 21.033-19.856 36.285-9.32-4.891-20.576-4.969-30.173.525l-13.009 7.447c-14.547 8.328-19.952 26.525-12.306 41.427 4.254 8.289 8.581 17.037 12.908 26.088-5.796 1.39-11.491.631-17.551-2.653-16.408-9.243-36.971-5.406-48.939 9.152l-1.41 1.714c-2.202 2.678-4.644 4.506-6.907 5.756 3.339-27.131-10.766-54.282-33.486-66.303-12.839-6.792-28.621-1.565-34.867 11.546-6.115 12.833-7.455 28.152-3.863 42.753-15.352-.281-30.168 4.592-41.413 13.706-10.835 8.781-12.383 24.841-3.432 35.531 17 20.302 47.194 27.735 72.605 18.523-.702 1.247-1.515 2.439-2.445 3.557-.479.816-10.503 10.319-10.358 26.858-.542.117-20.535-1.648-35.175 15.825-8.427 10.057-11.943 23.234-9.647 36.153l7.781 43.771c.724 4.075 4.619 6.795 8.696 6.068zm407.195-158.035c2.693-6.226 5.392-12.309 8.027-18.089 3.85-8.447 13.939-11.952 22.204-7.751l13.363 6.793c7.782 3.956 11.064 13.28 7.47 21.226-5.59 12.359-14.005 31.722-23.472 56.074-8.906-2.781-14.493-2.015-40.743-2.037 1.094-4.928 5.419-26.318 13.151-56.216zm-89.922-138.213c2.785-8.842 12.363-13.572 21.093-10.406l14.093 5.112c8.205 2.976 12.601 11.825 10.007 20.146-5.985 19.2-14.977 50.283-23.829 89.318-.916 4.04 1.616 8.057 5.656 8.973h.001c4.042.916 8.056-1.616 8.973-5.656 3.378-14.895 7.043-29.788 10.897-44.28 4.064-6.46 12.051-9.23 19.328-6.59l14.092 5.111c8.205 2.975 12.601 11.825 10.008 20.146-11.245 36.074-21.192 75.409-28.869 112.554-32.724.248-34.818-.576-42.025.824 2.993-19.882 6.621-40.273 10.35-58.735.875-4.334-2.174-8.511-6.63-8.949-3.786-.374-7.309 2.175-8.077 5.981-4.549 22.539-8.6 46.039-11.788 68.368-6.822 4.574-11.981 10.789-15.238 17.565-.33-1.729-.487-3.453-.453-5.401.099-5.47 4.136-17.226-4.498-31.57-7.43-12.343-17.752-15.028-22.174-17.817 9.677-57.812 23.777-116.092 39.083-164.694zm-89.311-3.382 14.092-5.111c8.693-3.152 18.298 1.528 21.094 10.406 4.651 14.769 11.705 38.515 19.106 68.362-6.103 25.089-11.486 50.671-15.809 74.414-3.46-9.97-11.079-18.485-21.202-22.886-9.75-45.694-20.173-82.21-27.289-105.039-2.593-8.321 1.803-17.17 10.008-20.146zm-60.701 43.174 13.009-7.447c8.008-4.584 18.281-1.642 22.564 6.642 4.57 8.84 9.246 18.238 13.903 27.941 4.741 17.945 9.306 37.061 12.448 51.585-2.909-.184-5.522-.819-7.84-1.803-7.477-3.174-10.374-8.995-12.805-11.994-8.151-10.043-20.699-15.234-33.301-14.183-4.818-10.145-9.648-19.938-14.39-29.18-3.98-7.754-1.163-17.224 6.412-21.561zm-30.571 65.472c-.474-.173-.833-.357-1.016-.46.327.178.666.332 1.016.46zm-56.512 20.412c-.251.058-.458.091-.607.111.204-.028.406-.065.607-.111zm-100.135 10.185c-3.561-4.253-2.95-10.743 1.376-14.248 10.676-8.652 26.042-12.388 41.393-9.302 5.967 1.202 10.819-4.865 8.32-10.425-6.332-14.098-6.159-29.72-.34-41.933 2.573-5.401 9.022-7.536 14.311-4.74 19.709 10.429 30.282 35.736 24.354 57.726-14.078 5.126-23.963 17.94-25.205 33.067-20.413 12.324-49.254 7.716-64.209-10.145zm70.191 41.302c6.226-7.486 9.39-16.964 8.909-26.688-.578-11.744 7.886-22.903 20.37-24.679 16.603-1.911 25.651-15.252 25.994-15.482 6.932-8.433 19.143-11.573 30.148-5.522 9.956 5.475 21.696 6.732 32.47 2.835 1.99-.695 2.625-1.026 4.574-1.507 9.969-2.507 20.211 1.816 25.531 9.835 7.141 10.731 18.024 16.972 30.645 17.573 1.158.089 3.223.012 6.035.631 8.257 1.829 14.955 7.978 17.509 15.894.979 3.021 2.279 12.937 10.892 21.752 4.409 4.527 8.368 6.641 13.453 8.964 9.861 4.349 15.562 14.821 13.865 25.464-1.989 12.374-.069 23.439 8.072 33.237-5.14 9.706-15.26 15.57-25.847 15.57h-97.139c-14.194 0-26.3-10.144-28.785-24.119-3.759-21.146-22.076-36.493-43.552-36.493h-60.042c-.156-10.502 6.408-16.447 6.898-17.265z"/></g></svg>